<svg version="1.2" baseProfile="tiny-ps" xmlns="http://www.w3.org/2000/svg" viewBox="0 0 1520 380" width="1520" height="380">
	<title>F1-svg copy-svg</title>
	<style>
		tspan { white-space:pre }
		.shp0 { fill: #ee0000 } 
	</style>
	<g id="Logos-/-F1-logo-red">
		<g id="Page-1">
			<path id="path-1" fill-rule="evenodd" class="shp0" d="M911.29 380L1291.29 0L1520 0L1140 380L911.29 380ZM394.59 205.87C353.11 245 262.87 332.67 214.23 380L0 380C0 380 171.66 208.83 267.08 114.92C365.38 21.34 414.38 0 594.68 0L1251.01 0L1108.9 142.1L608.02 142.1C481.32 142.1 452.86 150.88 394.59 205.87ZM953.05 297.97L613.15 297.97C547.52 297.97 531.41 301.21 500.15 332.46L452.61 380L253.34 380C253.34 380 344.56 289.13 400.73 232.97C460.77 172.92 485.31 165.49 625.5 165.49L1085.52 165.49L953.05 297.97Z" />
		</g>
	</g>
</svg>