<svg version="1.2" baseProfile="tiny-ps" xmlns="http://www.w3.org/2000/svg" viewBox="0 0 1521 380" width="1521" height="380">
	<title>F1-svg</title>
	<style>
		tspan { white-space:pre }
		.shp0 { fill: #ee0000 } 
	</style>
	<g id="Logos-/-F1-logo-red">
		<g id="Page-1">
			<path id="path-1" fill-rule="evenodd" class="shp0" d="M912.29 380L1292.29 0L1521 0L1141 380L912.29 380ZM1237.61 332.52L1276.05 332.52L1276.05 339.7L1260.95 339.7L1260.95 380L1252.64 380L1252.64 339.7L1237.61 339.7L1237.61 332.52ZM1281.43 332.52L1293.14 332.52L1306.24 369.69L1306.37 369.69L1319.14 332.52L1330.71 332.52L1330.71 380L1322.8 380L1322.8 343.35L1322.66 343.35L1309.5 380L1302.65 380L1289.48 343.35L1289.35 343.35L1289.35 380L1281.43 380L1281.43 332.52ZM395.59 205.87C354.11 245 263.87 332.67 215.23 380L1 380C1 380 172.66 208.83 268.08 114.92C366.38 21.34 415.38 0 595.68 0L1252.01 0L1109.9 142.1L609.02 142.1C482.32 142.1 453.86 150.88 395.59 205.87ZM954.05 297.97L614.15 297.97C548.52 297.97 532.41 301.21 501.15 332.46L453.61 380L254.34 380C254.34 380 345.56 289.13 401.73 232.97C461.77 172.92 486.31 165.49 626.5 165.49L1086.52 165.49L954.05 297.97Z" />
		</g>
	</g>
</svg>